#!OML:ASF H:\Terrain\Patient Classification 1\Terrain2\Thursday\justin.ASF
:FULLY-SPECIFIED
:DEGREES
2933
root 9.73981 20.8037 -12.2217 -3.29543 1.91479 -0.883796
lowerback 11.0044 0.642815 -0.534326
upperback 3.81518 0.864433 2.21771
thorax -2.23312 0.420616 2.49301
lowerneck -11.6083 -1.47969 -7.91937
upperneck 40.7247 -0.644467 2.07309
head 16.7432 -1.17378 2.25636
rclavicle 1.5704e-014 1.82882e-014
rhumerus -31.3217 -15.5156 -76.1227
rradius 26.2068
rwrist -7.8425
rhand -22.2508 12.7242
rfingers 7.12502
rthumb 4.16661 -17.2148
lclavicle 1.5704e-014 1.82882e-014
lhumerus -36.5821 3.71208 84.2668
lradius 29.0587
lwrist 2.94232
lhand -19.6408 19.0132
lfingers 7.12502
lthumb 6.68659 48.8876
rfemur -43.7909 -12.3347 19.6712
rtibia 96.6582
rfoot -8.78308 -2.68256
rtoes 3.99533
lfemur 2.16807 -2.80136 -22.2162
ltibia 13.7217
lfoot -8.5971 -7.92719
ltoes 13.332
2934
root 9.74403 20.817 -12.1749 -3.48431 1.92136 -0.854876
lowerback 11.0929 0.487381 -0.880426
upperback 3.72129 0.62735 2.34295
thorax -2.37211 0.302989 2.84963
lowerneck -11.3317 -1.31868 -8.13061
upperneck 40.9416 -0.392166 2.13377
head 16.7772 -1.10308 2.36716
rclavicle -7.05686e-015 -1.90833e-014
rhumerus -31.6804 -15.2341 -75.9798
rradius 26.1348
rwrist -7.78373
rhand -22.0139 12.8774
rfingers 7.12502
rthumb 4.39537 -17.057
lclavicle -7.05686e-015 -1.90833e-014
lhumerus -37.047 4.16774 84.1546
lradius 29.1409
lwrist 2.85132
lhand -19.5021 19.348
lfingers 7.12502
lthumb 6.82047 49.2181
rfemur -45.4717 -12.858 19.5643
rtibia 99.5287
rfoot -9.35903 -2.04736
rtoes 3.38314
lfemur 3.39183 -2.85671 -22.2868
ltibia 12.0869
lfoot -7.95619 -7.87394
ltoes 13.1577
2935
root 9.74443 20.8343 -12.1231 -3.88964 2.04605 -0.953645
lowerback 11.2619 0.30792 -1.03604
upperback 3.76412 0.376345 2.46112
thorax -2.40696 0.177194 3.09431
lowerneck -11.0519 -1.14145 -8.19017
upperneck 40.9773 -0.123467 2.09931
head 16.7062 -1.00887 2.40566
rclavicle -4.27387e-015 1.15295e-014
rhumerus -31.9244 -15.1021 -75.8771
rradius 26.0418
rwrist -7.4852
rhand -21.8171 12.6917
rfingers 7.12502
rthumb 4.58542 -17.2387
lclavicle -4.27387e-015 1.15295e-014
lhumerus -37.3821 4.41475 84.0968
lradius 29.2656
lwrist 3.04084
lhand -19.7767 19.3576
lfingers 7.12502
lthumb 6.55538 49.2362
rfemur -46.8315 -13.5096 19.5299
rtibia 102.314
rfoot -10.0873 -1.34539
rtoes 3.82578
lfemur 4.84685 -2.84442 -22.1853
ltibia 10.4558
lfoot -7.1899 -7.96242
ltoes 14.2135
2936
root 9.74398 20.8461 -12.0737 -4.16801 2.14979 -0.945011
lowerback 11.2824 -0.125941 -1.44312
upperback 4.28757 -0.238087 2.88426
thorax -1.82901 -0.146432 3.846
lowerneck -12.3641 -0.828056 -9.24364
upperneck 40.9359 0.841861 2.03237
head 16.9585 -0.790627 2.73467
rclavicle 1.6201e-014 -2.14687e-014
rhumerus -30.7041 -13.9702 -75.9431
rradius 25.915
rwrist -7.31218
rhand -21.9394 12.0449
rfingers 7.12502
rthumb 4.4673 -17.888
lclavicle 1.6201e-014 -2.14687e-014
lhumerus -36.7892 6.09408 84.2342
lradius 29.3497
lwrist 2.75617
lhand -19.6496 18.8661
lfingers 7.12502
lthumb 6.67806 48.7408
rfemur -48.4355 -14.1666 19.3897
rtibia 105.112
rfoot -11.223 -0.214026
rtoes 3.68358
lfemur 6.27241 -2.96182 -22.2202
ltibia 8.55961
lfoot -6.27768 -7.73323
ltoes 15.205
2937
root 9.7421 20.8493 -12.0311 -4.22768 2.34773 -0.813208
lowerback 11.2625 -0.603512 -1.94392
upperback 4.69293 -0.919608 3.32059
thorax -1.32324 -0.509522 4.66993
lowerneck -13.7248 -0.556586 -10.7076
upperneck 40.9694 1.86941 2.12116
head 17.2516 -0.599174 3.23006
rclavicle 2.42517e-014 -2.14687e-014
rhumerus -29.4708 -12.4842 -75.9636
rradius 25.6373
rwrist -7.56446
rhand -22.2035 12.3598
rfingers 7.12502
rthumb 4.21223 -17.5783
lclavicle 2.42517e-014 -2.14687e-014
lhumerus -36.2233 7.8514 84.4788
lradius 29.3138
lwrist 2.46524
lhand -19.5658 18.687
lfingers 7.12502
lthumb 6.75899 48.5591
rfemur -50.3984 -14.9758 19.1963
rtibia 107.872
rfoot -12.4637 0.748527
rtoes 2.37423
lfemur 7.66309 -3.16876 -22.4037
ltibia 6.23525
lfoot -5.18905 -7.53035
ltoes 15.0801
2938
root 9.74205 20.8538 -11.9843 -4.46315 2.58157 -0.627471
lowerback 11.474 -0.452731 -2.20957
upperback 4.57151 -0.752484 3.06856
thorax -1.58093 -0.419357 4.54157
lowerneck -13.1938 -0.724434 -9.98967
upperneck 41.0206 1.30875 2.11008
head 17.1874 -0.716162 2.99478
rclavicle -2.08724e-015 1.66979e-014
rhumerus -30.2501 -13.4925 -75.849
rradius 25.4164
rwrist -7.28243
rhand -22.1212 13.5928
rfingers 7.12502
rthumb 4.29177 -16.3437
lclavicle -2.08724e-015 1.66979e-014
lhumerus -36.4387 6.55553 84.3959
lradius 29.2436
lwrist 2.86467
lhand -19.6333 18.6926
lfingers 7.12502
lthumb 6.69384 48.5668
rfemur -52.1327 -15.8399 18.8631
rtibia 110.499
rfoot -13.6132 1.48908
rtoes 0.382502
lfemur 9.39682 -3.39441 -22.6821
ltibia 3.6666
lfoot -4.04999 -7.41171
ltoes 14.9895
2939
root 9.74524 20.8564 -11.9309 -4.93485 2.69112 -0.726166
lowerback 11.9242 0.201688 -1.58401
upperback 4.03832 0.163039 2.2306
thorax -2.46931 0.068652 3.19486
lowerneck -11.1342 -1.26753 -7.68868
upperneck 41.0564 -0.461994 2.10645
head 16.7867 -1.07464 2.26422
rclavicle -5.36719e-015 2.18663e-014
rhumerus -32.8412 -16.6627 -75.5589
rradius 25.7159
rwrist -6.73856
rhand -21.8367 13.5984
rfingers 7.12502
rthumb 4.56641 -16.3324
lclavicle -5.36719e-015 2.18663e-014
lhumerus -37.4006 2.71193 84.0123
lradius 29.409
lwrist 3.55978
lhand -19.4546 18.5268
lfingers 7.12502
lthumb 6.8663 48.3954
rfemur -53.466 -16.4873 18.8082
rtibia 112.9
rfoot -14.7032 2.1189
rtoes -1.04355
lfemur 11.978 -3.50744 -22.6635
ltibia 5.56597e-015
lfoot -2.52499 -7.23454
ltoes 14.4621
2940
root 9.74809 20.8552 -11.881 -5.22041 2.77227 -0.988719
lowerback 12.0401 0.0799331 -1.49976
upperback 3.97757 0.0152633 2.33617
thorax -2.58587 -0.00292227 3.27935
lowerneck -10.7601 -1.19657 -7.42453
upperneck 41.2199 -0.349948 1.8133
head 16.7728 -1.03261 2.10445
rclavicle 4.17448e-015 -2.3059e-014
rhumerus -33.3139 -16.4992 -75.4709
rradius 25.905
rwrist -7.02621
rhand -21.5329 13.014
rfingers 7.12502
rthumb 4.85983 -16.9103
lclavicle 4.17448e-015 -2.3059e-014
lhumerus -37.7715 2.7539 83.9109
lradius 29.5259
lwrist 3.50842
lhand -19.4778 18.4943
lfingers 7.12502
lthumb 6.84397 48.3637
rfemur -55.014 -17.0803 19.098
rtibia 115.09
rfoot -15.64 2.58225
rtoes -0.986026
lfemur 12.4775 -3.62375 -22.4338
ltibia -3.97569e-015
lfoot -2.75236 -7.13993
ltoes 14.3789
2941
root 9.74853 20.8545 -11.8368 -5.29045 2.92253 -0.907504
lowerback 11.9217 -0.73305 -2.46239
upperback 4.5186 -1.15178 3.17926
thorax -1.83244 -0.616183 4.86504
lowerneck -12.5033 -0.567892 -9.12065
upperneck 41.316 1.47599 1.38867
head 17.1753 -0.62419 2.53682
rclavicle -5.20816e-014 1.90833e-014
rhumerus -31.3703 -13.4574 -75.6266
rradius 25.7093
rwrist -7.48989
rhand -21.1678 12.7659
rfingers 7.12502
rthumb 5.21228 -17.15
lclavicle -5.20816e-014 1.90833e-014
lhumerus -37.1072 6.40968 84.0423
lradius 29.3591
lwrist 2.80715
lhand -19.5877 18.3792
lfingers 7.12502
lthumb 6.73781 48.252
rfemur -56.9498 -17.9274 19.0676
rtibia 117.203
rfoot -16.4492 3.17692
rtoes -0.385029
lfemur 12.6976 -3.7852 -22.5526
ltibia -6.04305e-014
lfoot -2.73062 -7.02059
ltoes 15.6738
